<svg xmlns="http://www.w3.org/2000/svg" width="67" height="18" role="img" aria-label="Twitter">
	<title>Twitter</title>
	<linearGradient id="s" x2="0" y2="100%">
		<stop offset="0" stop-color="#fff" stop-opacity=".7"/>
		<stop offset=".1" stop-color="#aaa" stop-opacity=".1"/>
		<stop offset=".9" stop-color="#000" stop-opacity=".3"/>
		<stop offset="1" stop-color="#000" stop-opacity=".5"/>
	</linearGradient>
	<clipPath id="r">
		<rect width="67" height="18" rx="4" fill="#fff"/>
	</clipPath>
	<g clip-path="url(#r)">
		<rect width="0" height="18" fill="#555"/>
		<rect x="0" width="67" height="18" fill="#1da1f2"/>
		<rect width="67" height="18" fill="url(#s)"/>
	</g>
	<g fill="#fff" text-anchor="middle" font-family="Verdana,Geneva,DejaVu Sans,sans-serif" text-rendering="geometricPrecision" font-size="110">
		<svg fill="#1DA1F2" role="img" viewBox="0 0 24 24" xmlns="http://www.w3.org/2000/svg" x="5" y="2" width="14" height="14">
			<path d="M23.953 4.57a10 10 0 01-2.825.775 4.958 4.958 0 002.163-2.723c-.951.555-2.005.959-3.127 1.184a4.92 4.92 0 00-8.384 4.482C7.69 8.095 4.067 6.13 1.64 3.162a4.822 4.822 0 00-.666 2.475c0 1.71.87 3.213 2.188 4.096a4.904 4.904 0 01-2.228-.616v.06a4.923 4.923 0 003.946 4.827 4.996 4.996 0 01-2.212.085 4.936 4.936 0 004.604 3.417 9.867 9.867 0 01-6.102 2.105c-.39 0-.779-.023-1.17-.067a13.995 13.995 0 007.557 2.209c9.053 0 13.998-7.496 13.998-13.985 0-.21 0-.42-.015-.63A9.935 9.935 0 0024 4.59z"/>
		</svg>
		<text aria-hidden="true" x="425" y="140" fill="#010101" fill-opacity=".3" transform="scale(.1)" textLength="390">Twitter</text>
		<text x="425" y="130" transform="scale(.1)" fill="#fff" textLength="390">Twitter</text>
	</g>
</svg>
